HIERARCHY
ROOT Hips
{
    OFFSET   0.000000   0.000000   0.000000
    CHANNELS 6 Xposition Yposition Zposition Zrotation Xrotation Yrotation
    JOINT Chest
    {
        OFFSET   0.000000   8.007230   0.000000
        CHANNELS 3 Zrotation Xrotation Yrotation
        JOINT Chest2
        {
            OFFSET   0.000000  22.077100   0.000000
            CHANNELS 3 Zrotation Xrotation Yrotation
            JOINT Neck
            {
                OFFSET   0.000000  23.254700   0.000000
                CHANNELS 3 Zrotation Xrotation Yrotation
                JOINT Head
                {
                    OFFSET   0.000010  14.370000   1.956610
                    CHANNELS 3 Zrotation Xrotation Yrotation
                    End Site
                    {
                        OFFSET   0.000000  19.566000   0.000000
                    }
                }
            }
            JOINT LeftCollar
            {
                OFFSET   3.911900  19.017000  -0.467063
                CHANNELS 3 Zrotation Xrotation Yrotation
                JOINT LeftShoulder
                {
                    OFFSET  10.383700   0.000000   0.000000
                    CHANNELS 3 Zrotation Xrotation Yrotation
                    JOINT LeftElbow
                    {
                        OFFSET  26.662100   0.001671   0.000522
                        CHANNELS 3 Zrotation Xrotation Yrotation
                        JOINT LeftWrist
                        {
                            OFFSET  28.869000   0.000037  -0.000114
                            CHANNELS 3 Zrotation Xrotation Yrotation
                            JOINT LeftFinger0
                            {
                                OFFSET   2.044650  -2.323450   3.252850
                                CHANNELS 3 Zrotation Xrotation Yrotation
                                JOINT LeftFinger01
                                {
                                    OFFSET   3.088140   0.000000   0.000000
                                    CHANNELS 3 Zrotation Xrotation Yrotation
                                    JOINT LeftFinger02
                                    {
                                        OFFSET   2.639460   0.000000   0.000000
                                        CHANNELS 3 Zrotation Xrotation Yrotation
                                        End Site
                                        {
                                            OFFSET   2.582190   0.000000   0.000000
                                        }
                                    }
                                }
                            }
                            JOINT LeftFinger1
                            {
                                OFFSET   8.364480   0.000000   3.252850
                                CHANNELS 3 Zrotation Xrotation Yrotation
                                JOINT LeftFinger11
                                {
                                    OFFSET   4.646930   0.000000   0.000000
                                    CHANNELS 3 Zrotation Xrotation Yrotation
                                    JOINT LeftFinger12
                                    {
                                        OFFSET   2.323470   0.000000   0.000000
                                        CHANNELS 3 Zrotation Xrotation Yrotation
                                        End Site
                                        {
                                            OFFSET   2.273050   0.000000   0.000000
                                        }
                                    }
                                }
                            }
                            JOINT LeftFinger2
                            {
                                OFFSET   8.364490   0.000016   1.078090
                                CHANNELS 3 Zrotation Xrotation Yrotation
                                JOINT LeftFinger21
                                {
                                    OFFSET   5.111620   0.000000   0.000000
                                    CHANNELS 3 Zrotation Xrotation Yrotation
                                    JOINT LeftFinger22
                                    {
                                        OFFSET   2.788150   0.000013   0.000000
                                        CHANNELS 3 Zrotation Xrotation Yrotation
                                        End Site
                                        {
                                            OFFSET   2.727660   0.000000   0.000000
                                        }
                                    }
                                }
                            }
                            JOINT LeftFinger3
                            {
                                OFFSET   7.899780   0.000016  -1.078090
                                CHANNELS 3 Zrotation Xrotation Yrotation
                                JOINT LeftFinger31
                                {
                                    OFFSET   4.646930   0.000000   0.000000
                                    CHANNELS 3 Zrotation Xrotation Yrotation
                                    JOINT LeftFinger32
                                    {
                                        OFFSET   2.323470   0.000000   0.000000
                                        CHANNELS 3 Zrotation Xrotation Yrotation
                                        End Site
                                        {
                                            OFFSET   2.273050   0.000000   0.000000
                                        }
                                    }
                                }
                            }
                            JOINT LeftFinger4
                            {
                                OFFSET   7.435080   0.000000  -3.252850
                                CHANNELS 3 Zrotation Xrotation Yrotation
                                JOINT LeftFinger41
                                {
                                    OFFSET   3.717550   0.000000   0.000000
                                    CHANNELS 3 Zrotation Xrotation Yrotation
                                    JOINT LeftFinger42
                                    {
                                        OFFSET   1.858760   0.000000   0.000000
                                        CHANNELS 3 Zrotation Xrotation Yrotation
                                        End Site
                                        {
                                            OFFSET   1.818440   0.000000   0.000000
                                        }
                                    }
                                }
                            }
                        }
                    }
                }
            }
            JOINT RightCollar
            {
                OFFSET  -3.911900  19.017000  -0.467064
                CHANNELS 3 Zrotation Xrotation Yrotation
                JOINT RightShoulder
                {
                    OFFSET -10.383700   0.000000   0.000000
                    CHANNELS 3 Zrotation Xrotation Yrotation
                    JOINT RightElbow
                    {
                        OFFSET -26.662100   0.001633   0.000260
                        CHANNELS 3 Zrotation Xrotation Yrotation
                        JOINT RightWrist
                        {
                            OFFSET -28.869000  -0.000045  -0.000080
                            CHANNELS 3 Zrotation Xrotation Yrotation
                            JOINT RightFinger0
                            {
                                OFFSET  -2.044660  -2.323490   3.252850
                                CHANNELS 3 Zrotation Xrotation Yrotation
                                JOINT RightFinger01
                                {
                                    OFFSET  -3.088140   0.000000   0.000000
                                    CHANNELS 3 Zrotation Xrotation Yrotation
                                    JOINT RightFinger02
                                    {
                                        OFFSET  -2.639450   0.000000   0.000000
                                        CHANNELS 3 Zrotation Xrotation Yrotation
                                        End Site
                                        {
                                            OFFSET  -2.582190   0.000000   0.000000
                                        }
                                    }
                                }
                            }
                            JOINT RightFinger1
                            {
                                OFFSET  -8.364480   0.000000   3.252850
                                CHANNELS 3 Zrotation Xrotation Yrotation
                                JOINT RightFinger11
                                {
                                    OFFSET  -4.646920   0.000000   0.000000
                                    CHANNELS 3 Zrotation Xrotation Yrotation
                                    JOINT RightFinger12
                                    {
                                        OFFSET  -2.323470   0.000000   0.000000
                                        CHANNELS 3 Zrotation Xrotation Yrotation
                                        End Site
                                        {
                                            OFFSET  -2.273050   0.000000   0.000000
                                        }
                                    }
                                }
                            }
                            JOINT RightFinger2
                            {
                                OFFSET  -8.364480   0.000000   1.078090
                                CHANNELS 3 Zrotation Xrotation Yrotation
                                JOINT RightFinger21
                                {
                                    OFFSET  -5.111610   0.000000   0.000000
                                    CHANNELS 3 Zrotation Xrotation Yrotation
                                    JOINT RightFinger22
                                    {
                                        OFFSET  -2.788160   0.000000   0.000000
                                        CHANNELS 3 Zrotation Xrotation Yrotation
                                        End Site
                                        {
                                            OFFSET  -2.727660   0.000000   0.000000
                                        }
                                    }
                                }
                            }
                            JOINT RightFinger3
                            {
                                OFFSET  -7.899780   0.000000  -1.078090
                                CHANNELS 3 Zrotation Xrotation Yrotation
                                JOINT RightFinger31
                                {
                                    OFFSET  -4.646930   0.000000   0.000000
                                    CHANNELS 3 Zrotation Xrotation Yrotation
                                    JOINT RightFinger32
                                    {
                                        OFFSET  -2.323470   0.000000   0.000000
                                        CHANNELS 3 Zrotation Xrotation Yrotation
                                        End Site
                                        {
                                            OFFSET  -2.273050   0.000000   0.000000
                                        }
                                    }
                                }
                            }
                            JOINT RightFinger4
                            {
                                OFFSET  -7.435090   0.000000  -3.252850
                                CHANNELS 3 Zrotation Xrotation Yrotation
                                JOINT RightFinger41
                                {
                                    OFFSET  -3.717550   0.000000   0.000000
                                    CHANNELS 3 Zrotation Xrotation Yrotation
                                    JOINT RightFinger42
                                    {
                                        OFFSET  -1.858760   0.000000   0.000000
                                        CHANNELS 3 Zrotation Xrotation Yrotation
                                        End Site
                                        {
                                            OFFSET  -1.818440   0.000000   0.000000
                                        }
                                    }
                                }
                            }
                        }
                    }
                }
            }
        }
    }
    JOINT LeftHip
    {
        OFFSET   9.782990   0.000000   0.000000
        CHANNELS 3 Zrotation Xrotation Yrotation
        JOINT LeftKnee
        {
            OFFSET  -0.000063 -41.789100   0.001657
            CHANNELS 3 Zrotation Xrotation Yrotation
            JOINT LeftAnkle
            {
                OFFSET   0.000078 -41.133200  -0.000113
                CHANNELS 3 Zrotation Xrotation Yrotation
                JOINT LeftToe
                {
                    OFFSET   0.000000  -6.358970  14.674500
                    CHANNELS 3 Zrotation Xrotation Yrotation
                    End Site
                    {
                        OFFSET   0.000000   0.000000   3.913200
                    }
                }
            }
        }
    }
    JOINT RightHip
    {
        OFFSET  -9.782990   0.000000   0.000000
        CHANNELS 3 Zrotation Xrotation Yrotation
        JOINT RightKnee
        {
            OFFSET   0.000053 -41.789200   0.000277
            CHANNELS 3 Zrotation Xrotation Yrotation
            JOINT RightAnkle
            {
                OFFSET   0.000030 -41.133200  -0.000150
                CHANNELS 3 Zrotation Xrotation Yrotation
                JOINT RightToe
                {
                    OFFSET   0.000000  -6.358960  14.674500
                    CHANNELS 3 Zrotation Xrotation Yrotation
                    End Site
                    {
                        OFFSET   0.000000   0.000000   3.913200
                    }
                }
            }
        }
    }
}
MOTION
Frames: 4
Frame Time:   0.016667
 -0.071369  89.554000  -0.065556  -2.148710  -3.241010  -3.210980   0.228998   2.143160   1.196620   0.413555   4.290620   2.387150   2.397430   0.095128  -0.004074   3.938670   0.192038   6.889730  -5.971880   3.921850  -1.605080 -69.634700  21.268600  -5.935180  -2.110780  -0.879550  -9.654880   0.038454 -13.757700   1.241550  40.872800  25.415400 -63.259200 -10.857300   0.003698   0.000776  -0.428632  -0.000581   0.000126 -17.699900   1.339470  -4.187110 -14.521800  -0.002903   0.002226 -10.165300  -0.000590   0.002250 -17.126300   0.516112  -1.665450 -17.133900   0.001098  -0.000416 -11.411200   0.001325   0.002618 -15.363100  -0.762952   2.774630 -15.381600  -0.000647  -0.001301 -10.244100  -0.004363  -0.001138 -17.674000  -1.270830   3.984350 -26.577400   0.001548  -0.000181 -17.700600  -0.000259  -0.003455   2.507190  -4.251010   2.677390  32.853800 -30.809000  75.401100 -25.099200 -20.021800  74.575200  48.260700 -12.635600  40.692200 -53.252100  31.002100  53.702000  -6.144490   0.004025   0.000571  -8.072260   0.002501  -0.003006 -17.565900   0.478392  -1.510770   0.000000  -0.000457   0.003008   0.000000  -0.000308   0.002319 -17.031200   2.486500  -8.057110   0.000000  -0.000446   0.010164   0.000000  -0.000276   0.007130 -14.750500   2.162450  -8.149330   0.003495  -0.001781  -0.000299   0.002337  -0.001182  -0.000573  -1.199570   0.179118  -8.427690  -0.000135  -0.002923   0.004267  -0.001081  -0.001898   0.003128   3.158010   6.374640  -0.807301   0.390906   0.090532  14.319600  -5.681090  -3.050570   2.413140   0.000000   0.000000   0.000000   0.166276   1.892730  -2.229910   1.052110   3.649490 -14.029900  -0.525550  -2.330270   5.337870   0.000000   0.000000  -0.000000
 -0.078731  89.553800  -0.071512  -2.147120  -3.237740  -3.190870   0.224079   2.141600   1.206550   0.403360   4.287450   2.407240   2.416720   0.083027  -0.004061   3.970360   0.167557   6.884170  -5.987270   3.927970  -1.611370 -69.652100  21.280100  -5.907460  -2.129300  -0.864548  -9.653370   0.042542 -13.720600   1.226800  40.865400  25.404500 -63.250300 -10.833000   0.003703   0.000786  -0.416496  -0.000579   0.000133 -17.689100   1.343030  -4.202260 -14.513300  -0.002961   0.002323 -10.159300  -0.000644   0.002219 -17.114000   0.516640  -1.674270 -17.121600   0.001075  -0.000425 -11.403000   0.001321   0.002651 -15.348300  -0.759611   2.766880 -15.366700  -0.000722  -0.001276 -10.234200  -0.004548  -0.001143 -17.652600  -1.268650   3.979970 -26.545000   0.001468  -0.000089 -17.679000  -0.000313  -0.003393   2.506320  -4.250510   2.676860  32.832000 -30.895200  75.363800 -25.056300 -20.011600  74.603800  48.414400 -12.707500  40.801200 -53.231300  30.983200  53.686700  -6.154950   0.004094   0.000516  -8.077490   0.002515  -0.003058 -17.744800   0.491339  -1.535360   0.000000  -0.000590   0.002997   0.000000  -0.000405   0.002307 -17.214900   2.500430  -8.008190   0.000000  -0.000590   0.010169   0.000000  -0.000373   0.007129 -15.016800   2.189380  -8.098330   0.003576  -0.001817  -0.000271   0.002384  -0.001206  -0.000546  -1.369800   0.202251  -8.382560  -0.000065  -0.002943   0.004196  -0.001147  -0.001921   0.003085   3.163190   6.364150  -0.820739   0.391559   0.092090  14.319300  -5.684580  -3.049390   2.408990  -0.000000   0.000000  -0.000000   0.166987   1.893380  -2.239470   1.054760   3.642900 -14.037800  -0.530821  -2.330100   5.335730  -0.000000   0.000000   0.000000
 -0.086671  89.553600  -0.076479  -2.144680  -3.230940  -3.165630   0.219452   2.136650   1.215980   0.393859   4.277480   2.426290   2.432630   0.075521  -0.004037   3.996470   0.152322   6.875620  -6.002770   3.935290  -1.616720 -69.665100  21.293700  -5.883950  -2.142490  -0.847634  -9.651510   0.054209 -13.697400   1.213600  40.858900  25.386900 -63.234600 -10.810600   0.003708   0.000798  -0.405295  -0.000575   0.000140 -17.677400   1.346920  -4.218200 -14.503900  -0.003019   0.002420 -10.152800  -0.000701   0.002184 -17.100600   0.517198  -1.683140 -17.108200   0.001048  -0.000433 -11.394100   0.001314   0.002685 -15.334100  -0.755794   2.757830 -15.352300  -0.000800  -0.001247 -10.224700  -0.004732  -0.001146 -17.631300  -1.264730   3.972670 -26.512700   0.001387   0.000000 -17.657500  -0.000370  -0.003326   2.506100  -4.249050   2.676320  32.795600 -31.000700  75.320100 -25.018000 -19.998200  74.625500  48.618100 -12.792400  40.945400 -53.181700  30.933600  53.646500  -6.205120   0.004160   0.000456  -8.102580   0.002523  -0.003110 -17.946000   0.507332  -1.566300   0.000000  -0.000725   0.002985   0.000000  -0.000503   0.002294 -17.438700   2.507070  -7.929600   0.000000  -0.000733   0.010172   0.000000  -0.000467   0.007126 -15.343600   2.213550  -8.015620   0.003655  -0.001854  -0.000242   0.002430  -0.001231  -0.000519  -1.624810   0.236677  -8.310310   0.000000  -0.002962   0.004125  -0.001192  -0.001943   0.003041   3.167870   6.353650  -0.835858   0.392214   0.093648  14.318100  -5.687240  -3.048120   2.404240   0.000000   0.000000  -0.000000   0.167520   1.893550  -2.251880   1.056990   3.631190 -14.046900  -0.535650  -2.328830   5.331680  -0.000000   0.000000   0.000000
 -0.093633  89.553500  -0.079083  -2.140720  -3.222270  -3.133300   0.216790   2.126660   1.221180   0.388600   4.257470   2.436810   2.446120   0.071971  -0.003952   4.018590   0.144956   6.869170  -6.017650   3.947710  -1.599080 -69.686900  21.304800  -5.860200  -2.141700  -0.824440  -9.650500   0.067391 -13.700100   1.201030  40.868400  25.374300 -63.212100 -10.794300   0.003719   0.000800  -0.397142  -0.000567   0.000140 -17.663000   1.350330  -4.229240 -14.492400  -0.003080   0.002511 -10.144700  -0.000759   0.002142 -17.084400   0.517794  -1.690170 -17.092000   0.001013  -0.000439 -11.383300   0.001308   0.002721 -15.317600  -0.753180   2.750180 -15.335700  -0.000881  -0.001212 -10.213600  -0.004917  -0.001146 -17.605100  -1.258730   3.960010 -26.472800   0.001305   0.000067 -17.630900  -0.000436  -0.003235   2.505890  -4.222310   2.688610  32.758000 -31.153200  75.279900 -24.954800 -19.963300  74.645100  48.844500 -12.919500  41.142700 -53.117900  30.838600  53.464400  -6.353450   0.004224   0.000409  -8.176740   0.002520  -0.003160 -18.124800   0.535850  -1.636230   0.000000  -0.000863   0.002972   0.000000  -0.000596   0.002280 -17.658400   2.516210  -7.860210   0.000052  -0.000878   0.010179   0.000000  -0.000560   0.007125 -15.689600   2.243250  -7.940130   0.003722  -0.001890  -0.000216   0.002478  -0.001256  -0.000491  -2.002820   0.289750  -8.246940   0.000045  -0.002985   0.004062  -0.001193  -0.001959   0.002997   3.172310   6.361320  -0.851602   0.394851   0.046307  14.313300  -5.684630  -3.022330   2.397400   0.000000   0.000000   0.000000   0.168090   1.893690  -2.262790   1.060290   3.612340 -14.060100  -0.539689  -2.324640   5.323400  -0.000000   0.000000   0.000000
